<svg width="14" height="14" viewBox="0 0 14 14" fill="none" xmlns="http://www.w3.org/2000/svg">
<g id="Group 141">
<path id="Vector" d="M7.20438 4.6956C7.26951 4.76056 7.3468 4.81205 7.43184 4.84713C7.51688 4.8822 7.608 4.90017 7.69998 4.9C7.79177 4.90022 7.88267 4.88214 7.96738 4.8468C8.09539 4.79389 8.20483 4.70419 8.28183 4.58905C8.35884 4.47391 8.39996 4.33852 8.39998 4.2V0.700001C8.39998 0.51435 8.32623 0.336302 8.19496 0.205026C8.06368 0.0737509 7.88563 1.12091e-06 7.69998 1.12091e-06H4.19998C4.06135 -0.00024691 3.92577 0.0406729 3.81043 0.117573C3.69508 0.194473 3.60517 0.30389 3.55208 0.431953C3.499 0.560015 3.48513 0.700956 3.51225 0.836908C3.53936 0.97286 3.60623 1.0977 3.70438 1.1956L4.83698 2.3268L0.431181 6.7312C0.267065 6.89532 0.174866 7.11791 0.174866 7.35C0.174866 7.5821 0.267065 7.80469 0.431181 7.9688C0.595297 8.13292 0.817886 8.22512 1.04998 8.22512C1.28208 8.22512 1.50467 8.13292 1.66878 7.9688L6.07318 3.563L7.20438 4.6956Z" fill="#797E82"/>
<path id="Vector_2" d="M13.5688 6.03123C13.4875 5.94996 13.3911 5.88549 13.2849 5.8415C13.1787 5.79751 13.0649 5.77487 12.95 5.77487C12.8351 5.77487 12.7213 5.79751 12.6151 5.8415C12.5089 5.88549 12.4124 5.94996 12.3312 6.03123L7.92678 10.437L6.79558 9.30443C6.69768 9.20628 6.57284 9.13941 6.43688 9.1123C6.30093 9.08519 6.15999 9.09905 6.03193 9.15214C5.90387 9.20522 5.79445 9.29514 5.71755 9.41048C5.64065 9.52583 5.59973 9.66141 5.59998 9.80003V13.3C5.59998 13.4857 5.67373 13.6637 5.805 13.795C5.93628 13.9263 6.11433 14 6.29998 14H9.79998C9.93861 14.0003 10.0742 13.9594 10.1895 13.8825C10.3049 13.8056 10.3948 13.6961 10.4479 13.5681C10.501 13.44 10.5148 13.2991 10.4877 13.1631C10.4606 13.0272 10.3937 12.9023 10.2956 12.8044L9.16298 11.6732L13.5688 7.26883C13.6501 7.18758 13.7145 7.09111 13.7585 6.98494C13.8025 6.87876 13.8251 6.76496 13.8251 6.65003C13.8251 6.53511 13.8025 6.42131 13.7585 6.31513C13.7145 6.20896 13.6501 6.11249 13.5688 6.03123Z" fill="#797E82"/>
</g>
</svg>
